<?xml version="1.0" encoding="UTF-8"?>
<svg version="1.1" xmlns="http://www.w3.org/2000/svg" width="230" height="230">
<path d="M0 0 C75.9 0 151.8 0 230 0 C230 75.9 230 151.8 230 230 C154.1 230 78.2 230 0 230 C0 154.1 0 78.2 0 0 Z " fill="#2B5FCD" transform="translate(0,0)"/>
<path d="M0 0 C75.9 0 151.8 0 230 0 C230 75.9 230 151.8 230 230 C154.1 230 78.2 230 0 230 C0 154.1 0 78.2 0 0 Z M73.87890625 14.38671875 C69.35681231 18.26951459 63.85508099 20.94995416 58.6875 23.875 C57.45629248 24.57978 56.22747126 25.28873274 55 26 C54.06671875 26.54011719 53.1334375 27.08023437 52.171875 27.63671875 C45.94203596 31.34603112 40.01312468 35.29212321 34.25 39.6875 C33.64148193 40.13875244 33.03296387 40.59000488 32.40600586 41.05493164 C29.71339287 43.16076732 28.14912537 44.52580747 27.109375 47.83203125 C27.07328125 48.54746094 27.0371875 49.26289062 27 50 C28.65 50 30.3 50 32 50 C32 50.66 32 51.32 32 52 C31.07316406 52.13277344 30.14632813 52.26554687 29.19140625 52.40234375 C27.99386719 52.57894531 26.79632812 52.75554688 25.5625 52.9375 C24.36753906 53.11152344 23.17257813 53.28554688 21.94140625 53.46484375 C19.12044324 53.68985213 19.12044324 53.68985213 18 55 C17.95919217 56.99958364 17.95745644 59.00045254 18 61 C19.98 60.01 21.96 59.02 24 58 C22.88148408 61.10654163 21.75407561 64.2097823 20.625 67.3125 C20.30789062 68.19357422 19.99078125 69.07464844 19.6640625 69.98242188 C19.3546875 70.82998047 19.0453125 71.67753906 18.7265625 72.55078125 C18.44377441 73.33106689 18.16098633 74.11135254 17.86962891 74.9152832 C17 77 17 77 15 80 C15 80.99 15 81.98 15 83 C14.1028125 83.2165625 14.1028125 83.2165625 13.1875 83.4375 C11.43849596 83.8872439 9.71322977 84.42892341 8 85 C8 84.34 8 83.68 8 83 C5.525 83.495 5.525 83.495 3 84 C2.52500371 94.40980986 2.52500371 94.40980986 6 104 C6.66 104 7.32 104 8 104 C8 112.25 8 120.5 8 129 C7.34 129 6.68 129 6 129 C5.34 125.37 4.68 121.74 4 118 C3.67 118 3.34 118 3 118 C2.43739888 136.7533706 6.1945199 151.01290314 14.88671875 167.74609375 C16 170 16 170 16.85546875 172.41796875 C20.62366521 180.91891708 28.82538752 188.29420582 36 194 C36.69609375 194.58265625 37.3921875 195.1653125 38.109375 195.765625 C42.85845847 199.63899095 47.74868682 202.70192387 53.1875 205.51953125 C55.05224221 206.50111083 56.88769014 207.54061362 58.6875 208.63671875 C64.89149841 212.36092128 70.24765451 213.88827279 77.4453125 214.67578125 C80 215 80 215 81 216 C90.03495364 218.42594596 99.3435043 218.3950128 108.625 218.5625 C110.82346103 218.6065077 113.02178134 218.65305035 115.22006226 218.70530701 C117.18775784 218.75152668 119.15564862 218.78920334 121.12353516 218.82641602 C124 219 124 219 125 220 C126.32781878 220.20604085 127.66295895 220.3662959 129 220.5 C132.88888889 220.88888889 132.88888889 220.88888889 134 222 C135.99958364 222.04080783 138.00045254 222.04254356 140 222 C140 221.34 140 220.68 140 220 C140.680625 220.061875 141.36125 220.12375 142.0625 220.1875 C148.27945588 219.79067303 152.97360409 216.3831511 158 213 C161.63999758 210.95077526 165.32217977 208.98036474 169 207 C173.45921842 204.74023491 173.45921842 204.74023491 177.296875 201.625 C179.68926211 199.34235542 182.40475841 197.86486917 185.25 196.1875 C193.35247813 191.27867482 199.68155916 187.18952848 203 178 C203.7783777 174.68416549 203.7783777 174.68416549 204 172 C204.99 171.67 205.98 171.34 207 171 C207.33 167.37 207.66 163.74 208 160 C208.66 160 209.32 160 210 160 C215.42217207 146.65429247 216.80963799 135.13657085 216.4375 120.8125 C216.41589349 118.97854572 216.39700297 117.14455738 216.38085938 115.31054688 C216.29156808 108.11878705 216.16380288 101.10871371 215 94 C214.34 94 213.68 94 213 94 C212.896875 92.783125 212.79375 91.56625 212.6875 90.3125 C211.36383677 78.88248911 208.17209081 69.22701451 203 59 C202.34 59 201.68 59 201 59 C200.68675781 57.98099609 200.68675781 57.98099609 200.3671875 56.94140625 C198.54663779 53.0246236 195.97071417 50.15513605 193.125 46.9375 C192.59519531 46.32583984 192.06539062 45.71417969 191.51953125 45.08398438 C187.47207055 40.43894573 183.3768259 36.16623109 178.5 32.375 C177.37078125 31.48941406 177.37078125 31.48941406 176.21875 30.5859375 C171.46374849 27.187116 167.73702506 26.57370251 162 26 C162 25.34 162 24.68 162 24 C144.50261403 16.17222206 126.1878229 11.74917879 107 12 C106.7525 11.360625 106.505 10.72125 106.25 10.0625 C105.22246299 7.88057518 105.22246299 7.88057518 103.30859375 7.38671875 C92.19768178 5.52549999 82.20197493 6.60435987 73.87890625 14.38671875 Z " fill="#FCFDFE" transform="translate(0,0)"/>
<path d="M0 0 C1.03489563 -0.00262848 1.03489563 -0.00262848 2.09069824 -0.00531006 C4.38617431 -0.00973061 6.68157383 -0.00678412 8.97705078 -0.00341797 C10.58537816 -0.00409233 12.19370544 -0.00506345 13.80203247 -0.00631714 C17.18997152 -0.00779549 20.57788431 -0.00564022 23.96582031 -0.00097656 C28.24893716 0.00463959 32.5319909 0.00138791 36.81510544 -0.00439835 C66.95877206 -0.03943292 66.95877206 -0.03943292 79.30517578 0.51220703 C80.06265106 0.5425705 80.82012634 0.57293396 81.60055542 0.60421753 C85.79428115 0.83753448 89.37865327 1.62266928 93.29736328 3.12939453 C90.83746994 10.98011795 88.24811594 17.16741441 82.71533203 23.32861328 C81.28989983 25.13887291 80.45833626 26.7469889 79.60986328 28.87939453 C78.29736328 32.12939453 78.29736328 32.12939453 76.93798828 33.46142578 C74.69726599 35.73949345 73.31979007 38.29755161 71.73486328 41.06689453 C71.13544922 42.10716797 70.53603516 43.14744141 69.91845703 44.21923828 C68.64801794 46.49990605 67.43490508 48.78073858 66.29736328 51.12939453 C65.63736328 51.12939453 64.97736328 51.12939453 64.29736328 51.12939453 C64.20455078 52.39783203 64.20455078 52.39783203 64.10986328 53.69189453 C63.21291441 57.48667823 61.8299618 59.51113768 59.45361328 62.51611328 C58.09494768 64.2439478 58.09494768 64.2439478 57.29736328 67.12939453 C56.63736328 67.12939453 55.97736328 67.12939453 55.29736328 67.12939453 C55.15298828 67.91314453 55.00861328 68.69689453 54.85986328 69.50439453 C54.29736328 72.12939453 54.29736328 72.12939453 53.29736328 74.12939453 C52.63736328 74.12939453 51.97736328 74.12939453 51.29736328 74.12939453 C50.96736328 76.10939453 50.63736328 78.08939453 50.29736328 80.12939453 C49.63736328 80.12939453 48.97736328 80.12939453 48.29736328 80.12939453 C48.02923828 80.85126953 47.76111328 81.57314453 47.48486328 82.31689453 C46.29855869 85.1265633 44.86626948 87.51455087 43.29736328 90.12939453 C42.03781316 92.68541969 40.79946151 95.24996942 39.57861328 97.82470703 C38.33639775 100.0591801 37.10664216 101.36165522 35.29736328 103.12939453 C30.48398795 110.41213169 26.67073046 118.09756792 23.29736328 126.12939453 C22.63736328 126.12939453 21.97736328 126.12939453 21.29736328 126.12939453 C20.45307243 130.10962281 19.86202428 134.10084672 19.29736328 138.12939453 C22.50598103 137.9894394 25.71417616 137.84137196 28.92236328 137.69189453 C29.82599609 137.65257812 30.72962891 137.61326172 31.66064453 137.57275391 C36.28958363 137.35313271 40.7288517 136.94520017 45.29736328 136.12939453 C47.97546403 136.0174338 50.61469014 136.08314155 53.29736328 136.12939453 C53.29736328 135.46939453 53.29736328 134.80939453 53.29736328 134.12939453 C54.92063198 133.45852333 56.54603906 132.79282424 58.17236328 132.12939453 C59.07728516 131.75814453 59.98220703 131.38689453 60.91455078 131.00439453 C63.29736328 130.12939453 63.29736328 130.12939453 65.29736328 130.12939453 C65.29736328 129.46939453 65.29736328 128.80939453 65.29736328 128.12939453 C65.95736328 128.12939453 66.61736328 128.12939453 67.29736328 128.12939453 C67.29736328 127.46939453 67.29736328 126.80939453 67.29736328 126.12939453 C70.0369189 123.08544384 72.477998 120.68543224 76.29736328 119.12939453 C76.29736328 118.13939453 76.29736328 117.14939453 76.29736328 116.12939453 C76.95736328 116.12939453 77.61736328 116.12939453 78.29736328 116.12939453 C78.42111328 115.51064453 78.54486328 114.89189453 78.67236328 114.25439453 C79.29736328 112.12939453 79.29736328 112.12939453 81.29736328 110.12939453 C81.93988678 108.06065419 81.93988678 108.06065419 82.29736328 106.12939453 C82.95736328 106.12939453 83.61736328 106.12939453 84.29736328 106.12939453 C84.29736328 104.80939453 84.29736328 103.48939453 84.29736328 102.12939453 C84.95736328 102.12939453 85.61736328 102.12939453 86.29736328 102.12939453 C86.62736328 100.47939453 86.95736328 98.82939453 87.29736328 97.12939453 C88.94736328 96.79939453 90.59736328 96.46939453 92.29736328 96.12939453 C93.43477881 103.38718886 93.44572636 110.54338631 93.42236328 117.87939453 C93.42623047 119.07822266 93.43009766 120.27705078 93.43408203 121.51220703 C93.43279297 122.70072266 93.43150391 123.88923828 93.43017578 125.11376953 C93.42904785 126.17305664 93.42791992 127.23234375 93.42675781 128.32373047 C93.24703248 133.60968997 92.77142764 138.86271858 92.29736328 144.12939453 C78.39812457 144.17609617 64.49889801 144.21124143 50.59959698 144.23301888 C44.14604158 144.24346936 37.69253879 144.25765166 31.23901367 144.28027344 C25.01449375 144.30195667 18.79002451 144.31395362 12.56546974 144.31914902 C10.18714411 144.32285291 7.80882133 144.33008537 5.4305172 144.34085464 C2.10701817 144.3553094 -1.21626967 144.35737499 -4.53979492 144.35644531 C-5.52953812 144.36363586 -6.51928131 144.37082642 -7.53901672 144.37823486 C-8.4434552 144.37548553 -9.34789368 144.37273621 -10.27973938 144.36990356 C-11.0660288 144.37174715 -11.85231821 144.37359074 -12.66243458 144.37549019 C-14.70263672 144.12939453 -14.70263672 144.12939453 -17.70263672 142.12939453 C-18.66551145 137.0743022 -16.84786447 134.29339756 -14.13232422 130.26611328 C-10.829376 125.32973984 -8.11820854 120.02337126 -5.51513672 114.69189453 C-3.70263672 111.12939453 -3.70263672 111.12939453 -1.70263672 109.12939453 C-0.99552994 107.47947871 -0.32319683 105.81377197 0.29736328 104.12939453 C0.95736328 104.12939453 1.61736328 104.12939453 2.29736328 104.12939453 C2.41595703 103.39333984 2.53455078 102.65728516 2.65673828 101.89892578 C3.67299592 97.5054705 6.00997249 93.97781804 8.29736328 90.12939453 C8.74982422 89.35080078 9.20228516 88.57220703 9.66845703 87.77001953 C12.17606158 83.57331638 12.17606158 83.57331638 13.29736328 82.12939453 C13.95736328 82.12939453 14.61736328 82.12939453 15.29736328 82.12939453 C15.40951172 81.56736328 15.52166016 81.00533203 15.63720703 80.42626953 C16.38793667 77.81426346 17.50903704 75.73468132 18.85986328 73.37939453 C19.31490234 72.58017578 19.76994141 71.78095703 20.23876953 70.95751953 C20.58810547 70.35423828 20.93744141 69.75095703 21.29736328 69.12939453 C21.95736328 69.12939453 22.61736328 69.12939453 23.29736328 69.12939453 C23.68021484 67.85708984 23.68021484 67.85708984 24.07080078 66.55908203 C25.38230812 62.89187361 27.04379451 59.66364896 28.92236328 56.25439453 C29.55400391 55.10197266 30.18564453 53.94955078 30.83642578 52.76220703 C31.31853516 51.89337891 31.80064453 51.02455078 32.29736328 50.12939453 C32.95736328 50.12939453 33.61736328 50.12939453 34.29736328 50.12939453 C34.56548828 49.57251953 34.83361328 49.01564453 35.10986328 48.44189453 C36.29736328 46.12939453 36.29736328 46.12939453 37.67236328 44.00439453 C39.62728181 40.54569251 40.907623 36.97716298 42.23486328 33.23876953 C43.29736328 31.12939453 43.29736328 31.12939453 46.29736328 30.12939453 C46.88407909 28.31746325 46.88407909 28.31746325 47.29736328 26.12939453 C48.0694007 24.40239793 48.88483241 22.69436688 49.73486328 21.00439453 C50.16669922 20.13556641 50.59853516 19.26673828 51.04345703 18.37158203 C52.29736328 16.12939453 52.29736328 16.12939453 54.29736328 14.12939453 C54.93988678 12.06065419 54.93988678 12.06065419 55.29736328 10.12939453 C55.95736328 10.12939453 56.61736328 10.12939453 57.29736328 10.12939453 C56.80236328 8.64439453 56.80236328 8.64439453 56.29736328 7.12939453 C45.80303836 6.90070464 35.62916636 6.97168566 25.29736328 9.12939453 C24.96736328 9.45939453 24.63736328 9.78939453 24.29736328 10.12939453 C22.63119213 10.17003285 20.96348233 10.17211553 19.29736328 10.12939453 C19.29736328 10.78939453 19.29736328 11.44939453 19.29736328 12.12939453 C13.88559858 16.12939453 13.88559858 16.12939453 11.29736328 16.12939453 C11.02923828 16.71720703 10.76111328 17.30501953 10.48486328 17.91064453 C8.94488072 20.78798036 6.9191983 22.94537601 4.73486328 25.34814453 C3.25311015 27.18422994 2.27390328 28.98851839 1.29736328 31.12939453 C0.63736328 31.12939453 -0.02263672 31.12939453 -0.70263672 31.12939453 C-0.78513672 31.87189453 -0.86763672 32.61439453 -0.95263672 33.37939453 C-1.84860907 36.6646265 -3.21544394 37.87537608 -5.70263672 40.12939453 C-6.03263672 40.78939453 -6.36263672 41.44939453 -6.70263672 42.12939453 C-7.69263672 42.12939453 -8.68263672 42.12939453 -9.70263672 42.12939453 C-11.97612764 35.07342072 -12.0422049 28.25133656 -12.01831055 20.87329102 C-12.01511657 18.80384207 -12.03879235 16.73578031 -12.06396484 14.66650391 C-12.06460938 13.35875 -12.06525391 12.05099609 -12.06591797 10.70361328 C-12.06889893 9.51340576 -12.07187988 8.32319824 -12.07495117 7.09692383 C-11.70263672 4.12939453 -11.70263672 4.12939453 -10.30493164 2.28100586 C-6.83146761 -0.21546372 -4.24779695 0.00270397 0 0 Z " fill="#F8FAFC" transform="translate(76.70263671875,39.87060546875)"/>
<path d="M0 0 C1.32 0 2.64 0 4 0 C5.13741553 7.25779433 5.14836308 14.41399178 5.125 21.75 C5.12886719 22.94882813 5.13273437 24.14765625 5.13671875 25.3828125 C5.13542969 26.57132813 5.13414062 27.75984375 5.1328125 28.984375 C5.13168457 30.04366211 5.13055664 31.10294922 5.12939453 32.19433594 C4.9496692 37.48029544 4.47406436 42.73332405 4 48 C-9.89923871 48.04670164 -23.79846527 48.0818469 -37.6977663 48.10362434 C-44.1513217 48.11407483 -50.60482449 48.12825713 -57.05834961 48.15087891 C-63.28286953 48.17256214 -69.50733877 48.18455909 -75.73189354 48.18975449 C-78.11021918 48.19345838 -80.48854195 48.20069084 -82.86684608 48.21146011 C-86.19034511 48.22591487 -89.51363295 48.22798046 -92.8371582 48.22705078 C-93.8269014 48.23424133 -94.81664459 48.24143188 -95.83638 48.24884033 C-96.74081848 48.246091 -97.64525696 48.24334167 -98.57710266 48.24050903 C-99.36339208 48.24235262 -100.14968149 48.24419621 -100.95979786 48.24609566 C-103 48 -103 48 -106 46 C-106.375 43 -106.375 43 -106 40 C-105.01 39.34 -104.02 38.68 -103 38 C-103.33 40.31 -103.66 42.62 -104 45 C-99.49764405 45.02472359 -94.99532764 45.04287119 -90.49291992 45.05493164 C-88.9613374 45.0599596 -87.42975967 45.06678284 -85.89819336 45.07543945 C-83.69643978 45.08757229 -81.49474967 45.09324367 -79.29296875 45.09765625 C-78.26625313 45.10539818 -78.26625313 45.10539818 -77.21879578 45.11329651 C-74.19093758 45.1136536 -71.89849858 44.96616619 -69 44 C-69 43.34 -69 42.68 -69 42 C-68.42556152 41.97494385 -67.85112305 41.9498877 -67.25927734 41.92407227 C-64.63100279 41.80730125 -62.00301605 41.68494581 -59.375 41.5625 C-58.47136719 41.52318359 -57.56773438 41.48386719 -56.63671875 41.44335938 C-52.00777965 41.22373818 -47.56851158 40.81580564 -43 40 C-40.32189925 39.88803927 -37.68267314 39.95374701 -35 40 C-35 39.34 -35 38.68 -35 38 C-33.3767313 37.3291288 -31.75132422 36.66342971 -30.125 36 C-29.22007812 35.62875 -28.31515625 35.2575 -27.3828125 34.875 C-25 34 -25 34 -23 34 C-23 33.34 -23 32.68 -23 32 C-22.34 32 -21.68 32 -21 32 C-21 31.34 -21 30.68 -21 30 C-18.26044438 26.95604931 -15.81936528 24.55603771 -12 23 C-12 22.01 -12 21.02 -12 20 C-11.34 20 -10.68 20 -10 20 C-9.87625 19.38125 -9.7525 18.7625 -9.625 18.125 C-9 16 -9 16 -7 14 C-6.3574765 11.93125966 -6.3574765 11.93125966 -6 10 C-5.34 10 -4.68 10 -4 10 C-4 8.68 -4 7.36 -4 6 C-3.34 6 -2.68 6 -2 6 C-1.855625 5.195625 -1.71125 4.39125 -1.5625 3.5625 C-1 1 -1 1 0 0 Z " fill="#F8FAFC" transform="translate(165,136)"/>
<path d="M0 0 C1.32 0 2.64 0 4 0 C5.13741553 7.25779433 5.14836308 14.41399178 5.125 21.75 C5.12886719 22.94882813 5.13273437 24.14765625 5.13671875 25.3828125 C5.13542969 26.57132813 5.13414062 27.75984375 5.1328125 28.984375 C5.13168457 30.04366211 5.13055664 31.10294922 5.12939453 32.19433594 C4.9496692 37.48029544 4.47406436 42.73332405 4 48 C-9.89923871 48.04670164 -23.79846527 48.0818469 -37.6977663 48.10362434 C-44.1513217 48.11407483 -50.60482449 48.12825713 -57.05834961 48.15087891 C-63.28286953 48.17256214 -69.50733877 48.18455909 -75.73189354 48.18975449 C-78.11021918 48.19345838 -80.48854195 48.20069084 -82.86684608 48.21146011 C-86.19034511 48.22591487 -89.51363295 48.22798046 -92.8371582 48.22705078 C-93.8269014 48.23424133 -94.81664459 48.24143188 -95.83638 48.24884033 C-96.74081848 48.246091 -97.64525696 48.24334167 -98.57710266 48.24050903 C-99.36339208 48.24235262 -100.14968149 48.24419621 -100.95979786 48.24609566 C-103 48 -103 48 -106 46 C-106.375 43 -106.375 43 -106 40 C-105.01 39.34 -104.02 38.68 -103 38 C-103.33 40.31 -103.66 42.62 -104 45 C-99.49764405 45.02472359 -94.99532764 45.04287119 -90.49291992 45.05493164 C-88.9613374 45.0599596 -87.42975967 45.06678284 -85.89819336 45.07543945 C-83.69643978 45.08757229 -81.49474967 45.09324367 -79.29296875 45.09765625 C-78.26625313 45.10539818 -78.26625313 45.10539818 -77.21879578 45.11329651 C-74.19093758 45.1136536 -71.89849858 44.96616619 -69 44 C-69 43.34 -69 42.68 -69 42 C-68.42556152 41.97494385 -67.85112305 41.9498877 -67.25927734 41.92407227 C-64.63100279 41.80730125 -62.00301605 41.68494581 -59.375 41.5625 C-58.47136719 41.52318359 -57.56773438 41.48386719 -56.63671875 41.44335938 C-52.00777965 41.22373818 -47.56851158 40.81580564 -43 40 C-40.32189925 39.88803927 -37.68267314 39.95374701 -35 40 C-35 39.34 -35 38.68 -35 38 C-33.35 37.67 -31.7 37.34 -30 37 C-30.495 37.99 -30.495 37.99 -31 39 C-31.66 39 -32.32 39 -33 39 C-33 39.66 -33 40.32 -33 41 C-36.3 41.66 -39.6 42.32 -43 43 C-43.33 43.99 -43.66 44.98 -44 46 C-28.49 46 -12.98 46 3 46 C3 31.15 3 16.3 3 1 C1.68 1.33 0.36 1.66 -1 2 C-0.67 1.34 -0.34 0.68 0 0 Z " fill="#BED3F1" transform="translate(165,136)"/>
<path d="M0 0 C0.33 0 0.66 0 1 0 C1.07347656 1.12148437 1.07347656 1.12148437 1.1484375 2.265625 C1.22320312 3.25046875 1.29796875 4.2353125 1.375 5.25 C1.44460938 6.22453125 1.51421875 7.1990625 1.5859375 8.203125 C1.98883326 10.92457181 2.73760338 12.5983674 4 15 C4 15.99 4 16.98 4 18 C4.66 18 5.32 18 6 18 C6 26.25 6 34.5 6 43 C5.34 43 4.68 43 4 43 C3.34 41.35 2.68 39.7 2 38 C2 43.28 2 48.56 2 54 C-2 50 -2 50 -2.49447632 47.84425354 C-2.49162628 47.06879684 -2.48877625 46.29334015 -2.48583984 45.49438477 C-2.4919931 44.60989151 -2.49814636 43.72539825 -2.50448608 42.81410217 C-2.49011505 41.86611252 -2.47574402 40.91812286 -2.4609375 39.94140625 C-2.46002106 38.96010239 -2.45910461 37.97879852 -2.4581604 36.96775818 C-2.45212309 34.89406494 -2.43637323 32.82038047 -2.41162109 30.74682617 C-2.37517405 27.57763411 -2.37060142 24.4096139 -2.37109375 21.24023438 C-2.36125992 19.22394826 -2.34960176 17.20767005 -2.3359375 15.19140625 C-2.33371185 14.24544083 -2.33148621 13.2994754 -2.32919312 12.32484436 C-2.26408602 7.79558502 -2.15758222 4.10586282 0 0 Z " fill="#FAFBFC" transform="translate(2,86)"/>
<path d="M0 0 C0.66 0 1.32 0 2 0 C1.40219566 5.46563972 0.49260528 10.67744555 -0.875 16 C-1.05208496 16.69697998 -1.22916992 17.39395996 -1.41162109 18.11206055 C-2.97521728 24.13874397 -4.52149558 29.78224337 -8 35 C-8.99 35 -9.98 35 -11 35 C-10.67 34.01 -10.34 33.02 -10 32 C-9.9231422 30.41729865 -9.86289252 28.83376491 -9.8125 27.25 C-9.02393126 17.54155535 -4.37958256 8.56247729 0 0 Z " fill="#5B7FCD" transform="translate(226,124)"/>
<path d="M0 0 C0.33 0 0.66 0 1 0 C1.20032453 3.60357025 1.38282186 7.20784601 1.5625 10.8125 C1.61857422 11.81732422 1.67464844 12.82214844 1.73242188 13.85742188 C2.58897114 31.61654329 2.58897114 31.61654329 -1 37 C-0.01 37 0.98 37 2 37 C2.33 36.01 2.66 35.02 3 34 C3.33 35.32 3.66 36.64 4 38 C1.23735711 38.59732819 -1.16032769 39 -4 39 C-4.66 39.99 -5.32 40.98 -6 42 C-6.66 42 -7.32 42 -8 42 C-8 40.68 -8 39.36 -8 38 C-7.34 38 -6.68 38 -6 38 C-5.72285156 36.86820313 -5.44570312 35.73640625 -5.16015625 34.5703125 C-4.79439512 33.08851098 -4.42850289 31.60674182 -4.0625 30.125 C-3.88009766 29.37863281 -3.69769531 28.63226563 -3.50976562 27.86328125 C-2.11328125 22.2265625 -2.11328125 22.2265625 -1 20 C-0.84876169 18.4804236 -0.75118307 16.95527498 -0.68359375 15.4296875 C-0.64169922 14.53378906 -0.59980469 13.63789063 -0.55664062 12.71484375 C-0.49766602 11.30912109 -0.49766602 11.30912109 -0.4375 9.875 C-0.37272461 8.45767578 -0.37272461 8.45767578 -0.30664062 7.01171875 C-0.20040928 4.67462908 -0.09836824 2.3374317 0 0 Z " fill="#D1DAF7" transform="translate(216,122)"/>
<path d="M0 0 C2.47960136 0.14024219 4.95852402 0.2869185 7.4375 0.4375 C8.14455078 0.47681641 8.85160156 0.51613281 9.58007812 0.55664062 C14.88671875 0.88671875 14.88671875 0.88671875 16 2 C18.66426685 2.16003488 21.30560428 2.25942889 23.97265625 2.31640625 C24.77029892 2.33718735 25.56794159 2.35796844 26.38975525 2.37937927 C28.94724611 2.44496158 31.5048428 2.50379967 34.0625 2.5625 C35.79232882 2.60567699 37.52214679 2.64929101 39.25195312 2.69335938 C43.5011926 2.80065172 47.7505389 2.90189426 52 3 C52 3.33 52 3.66 52 4 C61.17827862 4.28819516 61.17827862 4.28819516 70 2 C70.99 2.495 70.99 2.495 72 3 C64.71428571 6.42857143 64.71428571 6.42857143 60 6 C60 6.66 60 7.32 60 8 C58.00045254 8.04254356 55.99958364 8.04080783 54 8 C53.505 7.505 53.505 7.505 53 7 C51.67218122 6.79395915 50.33704105 6.6337041 49 6.5 C45.11111111 6.11111111 45.11111111 6.11111111 44 5 C41.76558209 4.86516117 39.52714511 4.79622833 37.2890625 4.75390625 C35.88410983 4.72090498 34.47916205 4.68769462 33.07421875 4.65429688 C30.86511479 4.60735159 28.65602067 4.56305978 26.44677734 4.52319336 C7.79466491 4.17010984 7.79466491 4.17010984 1 2 C0.67 1.34 0.34 0.68 0 0 Z " fill="#4268C6" transform="translate(80,214)"/>
<path d="M0 0 C7.875 0.875 7.875 0.875 9 2 C18.03495364 4.42594596 27.3435043 4.3950128 36.625 4.5625 C38.82346103 4.6065077 41.02178134 4.65305035 43.22006226 4.70530701 C45.18775784 4.75152668 47.15564862 4.78920334 49.12353516 4.82641602 C52 5 52 5 53 6 C54.34747084 6.23075082 55.70377565 6.41153063 57.0625 6.5625 C58.361875 6.706875 59.66125 6.85125 61 7 C61 7.33 61 7.66 61 8 C42.91103133 8.32365948 24.66965569 8.1869974 7 4 C7 3.34 7 2.68 7 2 C5.02 2 3.04 2 1 2 C0.67 1.34 0.34 0.68 0 0 Z " fill="#B6C9EE" transform="translate(72,213)"/>
<path d="M0 0 C2.29013653 3.4352048 2.17842973 4.985331 2 9 C2.66 9 3.32 9 4 9 C5.3240697 17.03880333 5.29683563 25.03516298 5.35009766 33.16625977 C5.36655559 34.99777015 5.39370907 36.82921906 5.43212891 38.66040039 C5.68980938 51.05483097 4.53583106 61.41651638 0 73 C-1.12267288 69.16840287 -0.67176511 66.81245157 0.375 62.9375 C0.78878906 61.37322266 0.78878906 61.37322266 1.2109375 59.77734375 C1.76189386 57.83808647 2.36248359 55.91254923 3 54 C3.09405178 52.26891482 3.13070948 50.53441824 3.1328125 48.80078125 C3.13595459 47.24520508 3.13595459 47.24520508 3.13916016 45.65820312 C3.1344873 44.55412109 3.12981445 43.45003906 3.125 42.3125 C3.12161621 41.18650391 3.11823242 40.06050781 3.11474609 38.90039062 C3.04195932 27.07169389 2.88269497 15.5307799 0 4 C0 2.68 0 1.36 0 0 Z " fill="#567CCB" transform="translate(211,85)"/>
<path d="M0 0 C0.99 0 1.98 0 3 0 C3 0.66 3 1.32 3 2 C3.99 2 4.98 2 6 2 C5.814375 2.969375 5.62875 3.93875 5.4375 4.9375 C5.293125 5.948125 5.14875 6.95875 5 8 C6.81115956 9.81115956 9.61278227 9.38199448 12.0625 9.5625 C13.16722656 9.64628906 14.27195312 9.73007813 15.41015625 9.81640625 C16.69212891 9.90728516 16.69212891 9.90728516 18 10 C18 10.66 18 11.32 18 12 C11.4 12 4.8 12 -2 12 C-2 4.125 -2 4.125 0 0 Z " fill="#3B65C2" transform="translate(98,166)"/>
<path d="M0 0 C0.33 0 0.66 0 1 0 C1 1.98 1 3.96 1 6 C1.66 6 2.32 6 3 6 C3.33 5.34 3.66 4.68 4 4 C4.66 4 5.32 4 6 4 C6.66 2.68 7.32 1.36 8 0 C8.99 0.33 9.98 0.66 11 1 C10.55914062 1.52335937 10.11828125 2.04671875 9.6640625 2.5859375 C7.67311981 5.47420648 6.58544726 8.33525683 5.375 11.625 C3.04347826 17.91304348 3.04347826 17.91304348 2 20 C1.34 20 0.68 20 0 20 C0 13.4 0 6.8 0 0 Z " fill="#DEE9FB" transform="translate(217,122)"/>
<path d="M0 0 C0.66 0.33 1.32 0.66 2 1 C0.99088542 2.7578125 -0.01822917 4.515625 -1.02734375 6.2734375 C-1.71719051 7.49798475 -2.37144538 8.74289077 -3 10 C-3.66 10 -4.32 10 -5 10 C-5.2475 10.66 -5.495 11.32 -5.75 12 C-7.31817045 15.76360907 -9.14505046 19.3711424 -11 23 C-11.66 23 -12.32 23 -13 23 C-13.33 23.66 -13.66 24.32 -14 25 C-14 24.01 -14 23.02 -14 22 C-13.34 22 -12.68 22 -12 22 C-12 20.35 -12 18.7 -12 17 C-12.99 17.33 -13.98 17.66 -15 18 C-15 16.35 -15 14.7 -15 13 C-12.69 13 -10.38 13 -8 13 C-7.814375 12.071875 -7.814375 12.071875 -7.625 11.125 C-7 9 -7 9 -5 7 C-4.67 7 -4.34 7 -4 7 C-3.67 5.02 -3.34 3.04 -3 1 C-2.01 0.67 -1.02 0.34 0 0 Z " fill="#3365C1" transform="translate(103,99)"/>
<path d="M0 0 C0 0.99 0 1.98 0 3 C-18.48 2.67 -36.96 2.34 -56 2 C-56 1.67 -56 1.34 -56 1 C-49.95349176 0.85577981 -43.90694309 0.71343908 -37.86035156 0.57275391 C-35.80825642 0.52475356 -33.75617271 0.47626158 -31.70410156 0.42724609 C-9.8272867 -0.09464482 -9.8272867 -0.09464482 0 0 Z " fill="#2959C2" transform="translate(144,36)"/>
<path d="M0 0 C0.33 0 0.66 0 1 0 C1.04898437 0.74765625 1.09796875 1.4953125 1.1484375 2.265625 C1.22320312 3.25046875 1.29796875 4.2353125 1.375 5.25 C1.44460937 6.22453125 1.51421875 7.1990625 1.5859375 8.203125 C1.98883326 10.92457181 2.73760338 12.5983674 4 15 C4 15.99 4 16.98 4 18 C4.66 18 5.32 18 6 18 C6 26.25 6 34.5 6 43 C5.34 43 4.68 43 4 43 C3.67 41.35 3.34 39.7 3 38 C3.66 38 4.32 38 5 38 C4.7834375 36.37191406 4.7834375 36.37191406 4.5625 34.7109375 C4.37480044 33.2656509 4.18731162 31.82033693 4 30.375 C3.85691406 29.30572266 3.85691406 29.30572266 3.7109375 28.21484375 C3.18393899 24.11178391 2.89533016 20.14754258 3 16 C2.34 16 1.68 16 1 16 C-0.06723961 12.53777385 -0.10173486 9.35960734 -0.0625 5.75 C-0.04896484 4.13351563 -0.04896484 4.13351563 -0.03515625 2.484375 C-0.02355469 1.66453125 -0.01195313 0.8446875 0 0 Z " fill="#ACC4EF" transform="translate(2,86)"/>
<path d="M0 0 C0.33 0 0.66 0 1 0 C2.53525127 8.84669542 1.8634912 14.39343244 -3 22 C-3.33 22 -3.66 22 -4 22 C-3.3622098 14.47407567 -1.80110167 7.32901118 0 0 Z " fill="#E0ECFA" transform="translate(228,124)"/>
<path d="M0 0 C-0.33 0.99 -0.66 1.98 -1 3 C-1.99 3 -2.98 3 -4 3 C-4.103125 4.2375 -4.20625 5.475 -4.3125 6.75 C-4.73801682 10.2792866 -5.48112592 12.37160966 -8 15 C-7.32829194 11.1936543 -6.27253436 7.64793184 -5 4 C-6.98 4.99 -8.96 5.98 -11 7 C-11.04254356 5.00045254 -11.04080783 2.99958364 -11 1 C-8.58198497 -1.41801503 -2.95078895 -1.47539447 0 0 Z " fill="#6084D3" transform="translate(29,54)"/>
<path d="M0 0 C19.305 0.495 19.305 0.495 39 1 C39 1.33 39 1.66 39 2 C24.81 2.33 10.62 2.66 -4 3 C-2.68 2.67 -1.36 2.34 0 2 C0 1.34 0 0.68 0 0 Z " fill="#4771C9" transform="translate(80,37)"/>
<path d="M0 0 C0.33 0 0.66 0 1 0 C1.20032453 3.60357025 1.38282186 7.20784601 1.5625 10.8125 C1.61857422 11.81732422 1.67464844 12.82214844 1.73242188 13.85742188 C2.05450747 20.53532984 2.36260761 27.41470877 1 34 C0.01 34.495 0.01 34.495 -1 35 C-1 32.69 -1 30.38 -1 28 C-1.66 28 -2.32 28 -3 28 C-2.68289062 26.8965625 -2.36578125 25.793125 -2.0390625 24.65625 C-0.78087972 19.62351888 -0.55525692 14.66736517 -0.375 9.5 C-0.33632812 8.5821875 -0.29765625 7.664375 -0.2578125 6.71875 C-0.16450436 4.47935472 -0.07871815 2.23994746 0 0 Z " fill="#ACC4E9" transform="translate(216,122)"/>
<path d="M0 0 C0.66 0.33 1.32 0.66 2 1 C2 3.64 2 6.28 2 9 C1.67 9 1.34 9 1 9 C1 14.28 1 19.56 1 25 C-2.90451142 21.09548858 -2.15936602 15.06230077 -2.1875 9.8125 C-2.20167969 8.60207031 -2.21585937 7.39164062 -2.23046875 6.14453125 C-2 3 -2 3 0 0 Z " fill="#DCEBFD" transform="translate(3,115)"/>
<path d="M0 0 C2.97 0 5.94 0 9 0 C9 2 9 2 7.0625 4 C6.381875 4.66 5.70125 5.32 5 6 C4.67 6.66 4.34 7.32 4 8 C3.01 8 2.02 8 1 8 C0.67 5.36 0.34 2.72 0 0 Z " fill="#DAE8FB" transform="translate(66,74)"/>
<path d="M0 0 C0.33 0.66 0.66 1.32 1 2 C0.34 2 -0.32 2 -1 2 C-1 2.99 -1 3.98 -1 5 C-2.65 5.33 -4.3 5.66 -6 6 C-6 6.99 -6 7.98 -6 9 C-4.35 9 -2.7 9 -1 9 C-1.33 10.32 -1.66 11.64 -2 13 C-3.65 13.33 -5.3 13.66 -7 14 C-6.01 13.67 -5.02 13.34 -4 13 C-4 12.34 -4 11.68 -4 11 C-5.65 11 -7.3 11 -9 11 C-9 8.875 -9 8.875 -8 6 C-5.50224217 3.74515308 -2.80198037 1.85734917 0 0 Z " fill="#698ED5" transform="translate(36,39)"/>
<path d="M0 0 C0.66 0.33 1.32 0.66 2 1 C-5.28571429 4.42857143 -5.28571429 4.42857143 -10 4 C-10 4.66 -10 5.32 -10 6 C-11.99954746 6.04254356 -14.00041636 6.04080783 -16 6 C-16.33 5.67 -16.66 5.34 -17 5 C-18.34747084 4.76924918 -19.70377565 4.58846937 -21.0625 4.4375 C-22.361875 4.293125 -23.66125 4.14875 -25 4 C-25 3.67 -25 3.34 -25 3 C-23.69804688 2.95101562 -22.39609375 2.90203125 -21.0546875 2.8515625 C-19.32810529 2.77649371 -17.60154378 2.70094767 -15.875 2.625 C-14.59109375 2.57859375 -14.59109375 2.57859375 -13.28125 2.53125 C-8.46830121 2.3091139 -4.57097662 1.63757729 0 0 Z " fill="#6083CB" transform="translate(150,216)"/>
<path d="M0 0 C2.31666995 2.12471729 3.74958578 4.11627634 5.125 6.9375 C5.45757813 7.60652344 5.79015625 8.27554688 6.1328125 8.96484375 C7 11 7 11 7.4921875 13.19921875 C7.65976562 13.79347656 7.82734375 14.38773438 8 15 C8.99 15.433125 8.99 15.433125 10 15.875 C10.66 16.24625 11.32 16.6175 12 17 C12.75 20.125 12.75 20.125 13 23 C5.7699115 15.7699115 5.7699115 15.7699115 4.5625 12.25 C3.60764168 9.57055064 2.5934458 7.18689161 1.3125 4.625 C0 2 0 2 0 0 Z " fill="#6489CC" transform="translate(11,158)"/>
<path d="M0 0 C0.66 0.33 1.32 0.66 2 1 C1.88570603 2.77155654 1.75816963 4.54226229 1.625 6.3125 C1.55539063 7.29863281 1.48578125 8.28476563 1.4140625 9.30078125 C1 12 1 12 -1 15 C-1.99 15 -2.98 15 -4 15 C-3.52396226 12.87429688 -3.04407402 10.74945573 -2.5625 8.625 C-2.29566406 7.44164062 -2.02882812 6.25828125 -1.75390625 5.0390625 C-1 2 -1 2 0 0 Z " fill="#3260BA" transform="translate(219,144)"/>
<path d="M0 0 C0.33 0 0.66 0 1 0 C1.66 3.63 2.32 7.26 3 11 C3.66 11 4.32 11 5 11 C5 11.66 5 12.32 5 13 C4.01 12.67 3.02 12.34 2 12 C2 15.96 2 19.92 2 24 C1.67 24 1.34 24 1 24 C-0.06309567 18.82682579 -0.11693938 13.87630664 -0.0625 8.625 C-0.05798828 7.79355469 -0.05347656 6.96210937 -0.04882812 6.10546875 C-0.03713164 4.07028103 -0.01919935 2.03513077 0 0 Z " fill="#6284C8" transform="translate(3,118)"/>
<path d="M0 0 C0.66 0.33 1.32 0.66 2 1 C-2.77884939 5.53059748 -6.86068925 8.63872663 -13 11 C-15.33878876 12.56328365 -15.33878876 12.56328365 -17 14 C-17.66 13.67 -18.32 13.34 -19 13 C-13.88851868 8.97363762 -8.62882848 5.47112008 -3.00390625 2.19921875 C-1.07296924 1.15418545 -1.07296924 1.15418545 0 0 Z " fill="#5179C7" transform="translate(56,25)"/>
<path d="M0 0 C0.33 0.99 0.66 1.98 1 3 C0.67 3.66 0.34 4.32 0 5 C-0.66 5 -1.32 5 -2 5 C-2 5.66 -2 6.32 -2 7 C-5.0560196 10.50188264 -8.2480676 13.2337919 -12.9375 13.875 C-14.4534375 13.936875 -14.4534375 13.936875 -16 14 C-13.38058783 12.25372522 -11.96175123 11.61277612 -9 11 C-9 10.34 -9 9.68 -9 9 C-8.34 9 -7.68 9 -7 9 C-7 8.34 -7 7.68 -7 7 C-5.37660195 5.29115995 -3.70680947 3.62553283 -2 2 C-1.34 1.34 -0.68 0.68 0 0 Z " fill="#BAD1F4" transform="translate(151,159)"/>
<path d="M0 0 C-0.33 3.63 -0.66 7.26 -1 11 C-4.17476486 7.82523514 -4.24381109 7.10502552 -5 3 C-5.66 2.67 -6.32 2.34 -7 2 C-4 0 -4 0 0 0 Z " fill="#EDF3F7" transform="translate(208,56)"/>
<path d="M0 0 C-0.33 0.66 -0.66 1.32 -1 2 C-0.34 2.33 0.32 2.66 1 3 C-4.61 2.67 -10.22 2.34 -16 2 C-13.55658047 -0.44341953 -12.49867143 -0.38216772 -9.125 -0.6875 C-8.26132813 -0.77386719 -7.39765625 -0.86023438 -6.5078125 -0.94921875 C-4.11002241 -0.99777213 -2.27878559 -0.70483368 0 0 Z " fill="#DAE9F7" transform="translate(104,5)"/>
<path d="M0 0 C0.99928333 2.698065 1.03624754 3.88010429 0.1875 6.6875 C-1 9 -1 9 -3 10 C-3.72159424 11.64363134 -4.39351421 13.31050386 -5 15 C-5.66 15 -6.32 15 -7 15 C-5.34292168 9.35086937 -3.52237988 4.73699363 0 0 Z " fill="#CFE3F5" transform="translate(69,159)"/>
<path d="M0 0 C0.33 0 0.66 0 1 0 C0.67 2.31 0.34 4.62 0 7 C-0.66 7 -1.32 7 -2 7 C-2.103125 7.94875 -2.20625 8.8975 -2.3125 9.875 C-3 13 -3 13 -6 15 C-6.35127162 10.78474059 -5.63698951 9.22298718 -3 6 C-1.96958573 4.01549844 -0.96314063 2.01800895 0 0 Z " fill="#5879C9" transform="translate(107,150)"/>
<path d="M0 0 C2.29013653 3.4352048 2.17842973 4.985331 2 9 C2.66 9 3.32 9 4 9 C4.33 13.62 4.66 18.24 5 23 C3.07082085 19.14164169 2.16987145 15.67713056 1.375 11.5 C1.2409375 10.83613281 1.106875 10.17226562 0.96875 9.48828125 C0.33173636 6.2317115 0 3.33585901 0 0 Z " fill="#A5B8E7" transform="translate(211,85)"/>
<path d="M0 0 C5.29500913 1.36157378 7.23745533 4.60343955 10 9 C9.01 9.495 9.01 9.495 8 10 C8 9.34 8 8.68 8 8 C6.68 8 5.36 8 4 8 C3.67 6.35 3.34 4.7 3 3 C1.68 3.33 0.36 3.66 -1 4 C-0.67 2.68 -0.34 1.36 0 0 Z " fill="#5475C7" transform="translate(181,36)"/>
<path d="M0 0 C0.33 0 0.66 0 1 0 C0.53411505 5.70709064 -0.93757784 9.15939723 -4 14 C-4.99 13.67 -5.98 13.34 -7 13 C-3.535 6.565 -3.535 6.565 0 0 Z " fill="#C7DFF6" transform="translate(109,90)"/>
<path d="M0 0 C5.61 0 11.22 0 17 0 C17.33 1.32 17.66 2.64 18 4 C17.34 4 16.68 4 16 4 C15.67 5.65 15.34 7.3 15 9 C14 7 14 7 15 1 C10.05 1 5.1 1 0 1 C0 0.67 0 0.34 0 0 Z " fill="#6386CC" transform="translate(116,46)"/>
<path d="M0 0 C10.55808656 1.92710706 10.55808656 1.92710706 15 4 C11.89252306 5.55373847 9.25773473 4.58528628 5.875 4.0625 C4.59367188 3.86785156 3.31234375 3.67320313 1.9921875 3.47265625 C1.00476563 3.31667969 0.01734375 3.16070313 -1 3 C-0.67 2.01 -0.34 1.02 0 0 Z " fill="#4E7CC9" transform="translate(142,18)"/>
<path d="M0 0 C0.33 0.99 0.66 1.98 1 3 C-5.4 3.36923077 -5.4 3.36923077 -8.4375 1.5 C-8.953125 1.005 -9.46875 0.51 -10 0 C-6.30458414 -0.95024979 -3.69541586 -0.95024979 0 0 Z " fill="#4F7AC5" transform="translate(73,210)"/>
<path d="M0 0 C4 3 4 3 4.390625 5.48046875 C4.34421875 6.37378906 4.2978125 7.26710937 4.25 8.1875 C4.21390625 9.08855469 4.1778125 9.98960937 4.140625 10.91796875 C4.09421875 11.60503906 4.0478125 12.29210937 4 13 C3.01 12.67 2.02 12.34 1 12 C0.67 8.04 0.34 4.08 0 0 Z " fill="#2D59B9" transform="translate(4,128)"/>
<path d="M0 0 C0.99 0 1.98 0 3 0 C1.85569823 3.87302138 0.76679902 7.00263439 -2 10 C-2.66 10 -3.32 10 -4 10 C-3.67 8.02 -3.34 6.04 -3 4 C-2.01 4 -1.02 4 0 4 C0 2.68 0 1.36 0 0 Z " fill="#3366BC" transform="translate(119,68)"/>
<path d="M0 0 C0 0.66 0 1.32 0 2 C-0.66 2 -1.32 2 -2 2 C-2.66 3.32 -3.32 4.64 -4 6 C-5.98 6 -7.96 6 -10 6 C-4.4 0 -4.4 0 0 0 Z " fill="#6284D3" transform="translate(74,16)"/>
<path d="M0 0 C0.99 0 1.98 0 3 0 C1.72278474 4.99275057 -0.17330957 7.57611908 -4 11 C-4 10.01 -4 9.02 -4 8 C-3.34 7.67 -2.68 7.34 -2 7 C-1.61781233 5.34385343 -1.28604898 3.67542976 -1 2 C-0.67 1.34 -0.34 0.68 0 0 Z " fill="#5E84D3" transform="translate(199,178)"/>
<path d="M0 0 C0.33 0 0.66 0 1 0 C1.25532751 3.06393013 1.21861333 4.63233212 -0.375 7.3125 C-1.179375 8.1478125 -1.179375 8.1478125 -2 9 C-2.66 9 -3.32 9 -4 9 C-4.33 10.65 -4.66 12.3 -5 14 C-5.66 14 -6.32 14 -7 14 C-5.94124926 10.59687262 -4.99097846 7.98646769 -3 5 C-2.34 5 -1.68 5 -1 5 C-0.67 3.35 -0.34 1.7 0 0 Z " fill="#C7D7F3" transform="translate(101,104)"/>
<path d="M0 0 C0.33 0 0.66 0 1 0 C1.33 4.62 1.66 9.24 2 14 C1.01 14 0.02 14 -1 14 C-1.027193 12.41676312 -1.04648306 10.83338938 -1.0625 9.25 C-1.07410156 8.36828125 -1.08570312 7.4865625 -1.09765625 6.578125 C-1.00826198 4.2181162 -0.66912821 2.25501476 0 0 Z " fill="#EEF6FD" transform="translate(1,87)"/>
<path d="M0 0 C0.66 0 1.32 0 2 0 C2 0.66 2 1.32 2 2 C3.65 2 5.3 2 7 2 C7 2.66 7 3.32 7 4 C2.50343896 6.24828052 -1.07872966 6.16682272 -6 6 C-6 5.67 -6 5.34 -6 5 C-2.535 4.505 -2.535 4.505 1 4 C0.67 2.68 0.34 1.36 0 0 Z " fill="#C8D6F7" transform="translate(25,48)"/>
<path d="M0 0 C0 3 0 3 -1 6 C-1.66 6 -2.32 6 -3 6 C-3 8.31 -3 10.62 -3 13 C-4.32 13.33 -5.64 13.66 -7 14 C-6.01 11.03 -5.02 8.06 -4 5 C-3.34 5 -2.68 5 -2 5 C-1.855625 4.360625 -1.71125 3.72125 -1.5625 3.0625 C-1 1 -1 1 0 0 Z " fill="#6A89D5" transform="translate(145,86)"/>
<path d="M0 0 C0.99 0 1.98 0 3 0 C3 0.66 3 1.32 3 2 C3.66 2 4.32 2 5 2 C4.35455571 5.48539917 2.89865603 8.02819057 1 11 C0 9 0 9 0.5 6.625 C1.0073242 3.96154796 0.84445568 2.53336705 0 0 Z " fill="#6083D4" transform="translate(112,76)"/>
<path d="M0 0 C0.33 0.66 0.66 1.32 1 2 C0.22265625 4.1640625 0.22265625 4.1640625 -0.9375 6.625 C-1.31777344 7.44226563 -1.69804687 8.25953125 -2.08984375 9.1015625 C-2.39019531 9.72804688 -2.69054687 10.35453125 -3 11 C-3.66 11 -4.32 11 -5 11 C-5.33 9.02 -5.66 7.04 -6 5 C-4.35 4.67 -2.7 4.34 -1 4 C-0.67 2.68 -0.34 1.36 0 0 Z " fill="#B1C3EA" transform="translate(18,72)"/>
<path d="M0 0 C0.66 1.32 1.32 2.64 2 4 C1.34 4.66 0.68 5.32 0 6 C-0.6425235 8.06874034 -0.6425235 8.06874034 -1 10 C-2.32 9.67 -3.64 9.34 -5 9 C-4.54625 8.2575 -4.0925 7.515 -3.625 6.75 C-2.31359204 4.53069422 -1.11719197 2.32032178 0 0 Z " fill="#3261BD" transform="translate(165,54)"/>
<path d="M0 0 C0.33 0 0.66 0 1 0 C0.67 2.31 0.34 4.62 0 7 C-0.99 7.33 -1.98 7.66 -3 8 C-3 8.66 -3 9.32 -3 10 C-3.66 10 -4.32 10 -5 10 C-3.66654496 6.40992874 -2.1056769 3.20429093 0 0 Z " fill="#658CCF" transform="translate(113,140)"/>
<path d="M0 0 C0.66 0.33 1.32 0.66 2 1 C2 3.64 2 6.28 2 9 C1.67 9 1.34 9 1 9 C0.67 10.98 0.34 12.96 0 15 C-0.33 15 -0.66 15 -1 15 C-1.02685412 12.68756208 -1.04632841 10.3750373 -1.0625 8.0625 C-1.07410156 6.77472656 -1.08570312 5.48695312 -1.09765625 4.16015625 C-1 1 -1 1 0 0 Z " fill="#AFBCE6" transform="translate(3,115)"/>
<path d="M0 0 C0.66 0 1.32 0 2 0 C2 0.99 2 1.98 2 3 C1.34 3 0.68 3 0 3 C0 6.96 0 10.92 0 15 C-2 13 -2 13 -2.265625 10.46875 C-2.26046875 9.4890625 -2.2553125 8.509375 -2.25 7.5 C-2.25515625 6.5203125 -2.2603125 5.540625 -2.265625 4.53125 C-2 2 -2 2 0 0 Z " fill="#3862B7" transform="translate(5,84)"/>
<path d="M0 0 C0.33 0 0.66 0 1 0 C0.67 3.63 0.34 7.26 0 11 C-0.66 11 -1.32 11 -2 11 C-2.33 9.02 -2.66 7.04 -3 5 C-2.01 4.67 -1.02 4.34 0 4 C0 2.68 0 1.36 0 0 Z " fill="#E1EFFB" transform="translate(215,146)"/>
<path d="M0 0 C0.66 0 1.32 0 2 0 C1.33333333 3.33333333 0.66666667 6.66666667 0 10 C-0.66 10 -1.32 10 -2 10 C-2.17942163 6.05272412 -2.09350689 3.4019487 0 0 Z " fill="#2654B6" transform="translate(223,134)"/>
<path d="M0 0 C2 2 2 2 2 6 C1.01 5.67 0.02 5.34 -1 5 C-1.99 6.485 -1.99 6.485 -3 8 C-3.66 7.34 -4.32 6.68 -5 6 C-3.35 4.02 -1.7 2.04 0 0 Z " fill="#305EBB" transform="translate(78,72)"/>
<path d="M0 0 C0.99 0 1.98 0 3 0 C1.66666667 4.66666667 0.33333333 9.33333333 -1 14 C-2.10844919 10.67465243 -1.84454356 8.37817425 -1 5 C-0.34 5 0.32 5 1 5 C1 4.01 1 3.02 1 2 C0.34 1.67 -0.32 1.34 -1 1 C-0.67 0.67 -0.34 0.34 0 0 Z " fill="#CBD9FC" transform="translate(21,58)"/>
<path d="M0 0 C2.31 0.33 4.62 0.66 7 1 C7.309375 1.78375 7.61875 2.5675 7.9375 3.375 C8.92875038 5.92330128 8.92875038 5.92330128 10 8 C6.05205855 6.32971708 3.18203882 3.8204435 0 1 C0 0.67 0 0.34 0 0 Z " fill="#577FCC" transform="translate(31,189)"/>
<path d="M0 0 C-0.66 1.32 -1.32 2.64 -2 4 C-2.66 4 -3.32 4 -4 4 C-4 4.66 -4 5.32 -4 6 C-4.66 6 -5.32 6 -6 6 C-6 6.66 -6 7.32 -6 8 C-6.66 7.67 -7.32 7.34 -8 7 C-6.47663111 3.31852519 -4.31953005 0 0 0 Z " fill="#3D68C2" transform="translate(148,162)"/>
<path d="M0 0 C3.32637022 2.69277589 4.58473125 6.03724749 6 10 C5.67 10.99 5.34 11.98 5 13 C4.15615325 11.58957044 3.32530504 10.17135868 2.5 8.75 C2.0359375 7.96109375 1.571875 7.1721875 1.09375 6.359375 C0 4 0 4 0 0 Z " fill="#235AB9" transform="translate(11,154)"/>
<path d="M0 0 C1.24546405 2.49092811 0.7767578 3.41080733 0 6 C-0.66 6 -1.32 6 -2 6 C-2.33 7.65 -2.66 9.3 -3 11 C-3.66 11 -4.32 11 -5 11 C-4.34 8.69 -3.68 6.38 -3 4 C-2.34 4 -1.68 4 -1 4 C-0.67 2.68 -0.34 1.36 0 0 Z " fill="#5981C9" transform="translate(135,103)"/>
<path d="M0 0 C0.66 0.33 1.32 0.66 2 1 C-1.75 7.75 -1.75 7.75 -4 10 C-3.67 7.03 -3.34 4.06 -3 1 C-2.01 0.67 -1.02 0.34 0 0 Z " fill="#4E7FC7" transform="translate(103,99)"/>
<path d="M0 0 C0.99 0 1.98 0 3 0 C2.67 1.32 2.34 2.64 2 4 C0.68 4.33 -0.64 4.66 -2 5 C-2 4.34 -2 3.68 -2 3 C-2.99 2.67 -3.98 2.34 -5 2 C-3.35 2 -1.7 2 0 2 C0 1.34 0 0.68 0 0 Z " fill="#E2F1FB" transform="translate(10,80)"/>
<path d="M0 0 C0.66 0.33 1.32 0.66 2 1 C-1.85421412 9.6309795 -1.85421412 9.6309795 -6 12 C-5.625 10.0625 -5.625 10.0625 -5 8 C-4.34 7.67 -3.68 7.34 -3 7 C-1.94647157 4.69034152 -0.94280904 2.3570226 0 0 Z " fill="#B1C3F2" transform="translate(166,49)"/>
<path d="M0 0 C1.98 0 3.96 0 6 0 C6 0.66 6 1.32 6 2 C6.66 2.33 7.32 2.66 8 3 C5.36 3 2.72 3 0 3 C0 2.01 0 1.02 0 0 Z " fill="#3F63C3" transform="translate(108,12)"/>
<path d="M0 0 C0 0.99 0 1.98 0 3 C-1.32 3 -2.64 3 -4 3 C-4.33 3.99 -4.66 4.98 -5 6 C-6.32 5.67 -7.64 5.34 -9 5 C-7.87926138 4.16094435 -6.75325453 3.32892169 -5.625 2.5 C-4.99851563 2.0359375 -4.37203125 1.571875 -3.7265625 1.09375 C-2 0 -2 0 0 0 Z " fill="#BECAF2" transform="translate(190,193)"/>
<path d="M0 0 C1 2 1 2 0.22265625 4.3828125 C-0.16019531 5.28773438 -0.54304687 6.19265625 -0.9375 7.125 C-1.31777344 8.03507813 -1.69804687 8.94515625 -2.08984375 9.8828125 C-2.39019531 10.58148438 -2.69054687 11.28015625 -3 12 C-3.87840996 8.90279155 -3.99435406 7.09354597 -3 4 C-2.34 4 -1.68 4 -1 4 C-0.67 2.68 -0.34 1.36 0 0 Z " fill="#BED4F3" transform="translate(222,130)"/>
<path d="M0 0 C7.38461538 -0.36923077 7.38461538 -0.36923077 10.5 1.5 C10.995 1.995 11.49 2.49 12 3 C11.01 4.485 11.01 4.485 10 6 C9.46375 5.360625 8.9275 4.72125 8.375 4.0625 C5.55632807 1.61470596 3.66139268 1.33285388 0 1 C0 0.67 0 0.34 0 0 Z " fill="#3D6AC0" transform="translate(160,39)"/>
<path d="M0 0 C5 2 5 2 10 4 C10 4.33 10 4.66 10 5 C6.63295715 5.2295711 4.58629732 5.33943529 1.625 3.625 C1.08875 3.08875 0.5525 2.5525 0 2 C0 1.34 0 0.68 0 0 Z " fill="#D4E2FD" transform="translate(56,207)"/>
<path d="M0 0 C0.66 0.33 1.32 0.66 2 1 C-1.17320782 4.53586014 -3.16743695 6.58578031 -8 7 C-7 5 -7 5 -4 4 C-2.62804426 2.70644173 -1.28817344 1.37701298 0 0 Z " fill="#BDC8F3" transform="translate(179,199)"/>
<path d="M0 0 C-0.9590625 0.433125 -0.9590625 0.433125 -1.9375 0.875 C-4.15206079 1.82823451 -4.15206079 1.82823451 -5 4 C-5.99 4 -6.98 4 -8 4 C-8 2.68 -8 1.36 -8 0 C-4.94736336 -0.98120464 -3.05263664 -0.98120464 0 0 Z " fill="#335EBE" transform="translate(168,136)"/>
<path d="M0 0 C0.33 0 0.66 0 1 0 C1.3125 2.8125 1.3125 2.8125 1 6 C-1.5 7.875 -1.5 7.875 -4 9 C-2.80100302 5.9168649 -1.52299523 2.93720508 0 0 Z " fill="#C1D3EF" transform="translate(121,70)"/>
<path d="M0 0 C0 0.66 0 1.32 0 2 C-0.99 2 -1.98 2 -3 2 C-3.66 3.32 -4.32 4.64 -5 6 C-5.33 6 -5.66 6 -6 6 C-6 4.35 -6 2.7 -6 1 C-4 0 -4 0 0 0 Z " fill="#365BB3" transform="translate(24,55)"/>
<path d="M0 0 C1.625 2.5 1.625 2.5 3 5 C2.34 5.66 1.68 6.32 1 7 C-0.5 5.625 -0.5 5.625 -2 4 C-2 3.34 -2 2.68 -2 2 C-2.66 1.67 -3.32 1.34 -4 1 C-2 0 -2 0 0 0 Z " fill="#E9F0FD" transform="translate(188,36)"/>
<path d="M0 0 C0.66 1.32 1.32 2.64 2 4 C1.34 4 0.68 4 0 4 C-0.33 6.64 -0.66 9.28 -1 12 C-1.33 12 -1.66 12 -2 12 C-1.85904936 10.3745692 -1.71207913 8.74965949 -1.5625 7.125 C-1.48128906 6.22007812 -1.40007812 5.31515625 -1.31640625 4.3828125 C-1 2 -1 2 0 0 Z " fill="#F6FEFE" transform="translate(219,130)"/>
<path d="M0 0 C0.33 1.32 0.66 2.64 1 4 C-0.65 4.33 -2.3 4.66 -4 5 C-4.33 3.68 -4.66 2.36 -5 1 C-4.67 1.66 -4.34 2.32 -4 3 C-3.01 3 -2.02 3 -1 3 C-0.67 2.01 -0.34 1.02 0 0 Z " fill="#BFCFF0" transform="translate(219,156)"/>
<path d="M0 0 C0.33 0 0.66 0 1 0 C1 1.65 1 3.3 1 5 C-0.98 5.99 -0.98 5.99 -3 7 C-2.38722388 4.03824877 -1.74627478 2.61941217 0 0 Z " fill="#CDDDF1" transform="translate(74,150)"/>
<path d="M0 0 C1.60031344 3.20062687 0.03173691 5.72271806 -1 9 C-1.66 8.67 -2.32 8.34 -3 8 C-3.36923077 3.44615385 -3.36923077 3.44615385 -1.5 1.1875 C-1.005 0.795625 -0.51 0.40375 0 0 Z " fill="#265ABE" transform="translate(212,144)"/>
<path d="M0 0 C0.99 0.33 1.98 0.66 3 1 C2.67 2.32 2.34 3.64 2 5 C1.34 5 0.68 5 0 5 C-0.33 5.99 -0.66 6.98 -1 8 C-0.67 5.36 -0.34 2.72 0 0 Z " fill="#DAEEFA" transform="translate(76,66)"/>
<path d="M0 0 C1.32 0.33 2.64 0.66 4 1 C4 1.66 4 2.32 4 3 C2.02 3.99 0.04 4.98 -2 6 C-2 5.01 -2 4.02 -2 3 C-1.34 3 -0.68 3 0 3 C0 2.01 0 1.02 0 0 Z " fill="#D2E2F6" transform="translate(92,49)"/>
</svg>
